# xmcd
#
# Track frame offsets:
#	150
#	13798
#	26784
#	41162
#	53491
#	67127
#	80998
#	96359
#	111454
#	126109
#	141598
#	155298
#	168258
#	180060
#	192530
#	206839
#	219853
#	233283
#	247531
#	262063
#
# Disc length: 3685 seconds
#
# Revision: 0
# Processed by: cddbd v1.5.2PL0 Copyright (c) Steve Scherf et al.
# Submitted via: EasyCDDAExtractor 16.0.6.1
#
DISCID=1c0e6314
DTITLE=Αναγνωστάκης Πέτρος - Τραγούδια 45 στροφές-Αναγνωστάκης Πέτρος 1
DYEAR=1996
DGENRE=Λαϊκή
TTITLE0=Αναγνωστάκης Πέτρος-Διαμάντη Λίτσα - Είναι ατέλειωτο το βράδυ [1966, Λ
TTITLE0=Μαρκέα-Κ. Βίρβου]
TTITLE1=Αναγνωστάκης Πέτρος-Κούρτη Ρία - Σ' ένα βράχο στ' ακρογιάλι [1961, Γ. 
TTITLE1=Ζαμπέτα]
TTITLE2=Αναγνωστάκης Πέτρος-Μπονίτα Μαίρη - Όσο πονώ την γλυκειά μου μάννα [19
TTITLE2=62, Μπ. Μπακάλη]
TTITLE3=Αναγνωστάκης Πέτρος-Καλάκη Ρούλα - Για να μη μάς τυραννάνε [1963, Μπ. 
TTITLE3=Μπακάλη]
TTITLE4=Αναγνωστάκης Πέτρος-Καλάκη Ρούλα - Αν δεν γίνουμε ζευγάρι στη ζωή [196
TTITLE4=4, Μπ. Μπακάλη]
TTITLE5=Αναγνωστάκης Πέτρος - Το καρναβάλι [1964, Θ. Δερβενιώτη-Κ. Βίρβου]
TTITLE6=Αναγνωστάκης Πέτρος-Γρίλλη Μαρία - Απ' του κόσμου την οργή θέλω να με 
TTITLE6=γλυτώσεις [1964, Μπ. Μπακάλη-Ν. Δαλέζιου]
TTITLE7=Αναγνωστάκης Πέτρος-Μανταλένα - Τους γέρους γονείς σου ναμ μην ξεχάσει
TTITLE7=ς [1964, Μπ. Μπακάλη]
TTITLE8=Αναγνωστάκης Πέτρος-Καλάκη Ρούλα - Άσε με να κοιμηθώ [1965, Γ. Μητσάκη
TTITLE8=]
TTITLE9=Αναγνωστάκης Πέτρος-Καλάκη Ρούλα - Με ξέχασες, με ξέχασες [1966, Βασ. 
TTITLE9=Βασιλειάδη-Πυθαγόρα]
TTITLE10=Αναγνωστάκης Πέτρος-Διαμάντη Λίτσα - Η κάθε σου επιθυμία [1966, Βασ. 
TTITLE10=Βασιλειάδη-Σπ. Κεφαλόπουλου]
TTITLE11=Αναγνωστάκης Πέτρος-Νόρμα Ρία - Την ζωή μου την ορίζεις [1966, Μπ. Μπ
TTITLE11=ακάλη]
TTITLE12=Αναγνωστάκης Πέτρος-Διαμάντη Λίτσα - Δεν έχεις μέσα σου καρδιά [1966,
TTITLE12=Τ. Σούκα-Ηρ. Παπασιδέρη]
TTITLE13=Αναγνωστάκης Πέτρος-Αντωνάτου Νίτσα - Λίγο ξύλο άμα φας [1963, Θ. Δερ
TTITLE13=βενιώτη]
TTITLE14=Αναγνωστάκης Πέτρος-Διαμάντη Λίτσα - Με περιφρονείς [1966, Βασ. Βασιλ
TTITLE14=ειάδη-Ηρ. Παπασιδέρη]
TTITLE15=Αναγνωστάκης Πέτρος-Διαμάντη Λ.-Μεϊμάρης Ν. - Λόγω τιμής [1968, Νίκ. 
TTITLE15=Μεϊμάρη]
TTITLE16=Αναγνωστάκης Πέτρος-Διαμάντη Λίτσα - Μόνο εγώ σε λατρεύω [1968,  Τ. Σ
TTITLE16=ούκα-Ηρ. Παπασιδέρη]
TTITLE17=Αναγνωστάκης Πέτρος - Ποιος άγιος σε έφερε κοντά μου [1965, Γ. Μητσάκ
TTITLE17=η-Ηρ. Παπασιδέρη]
TTITLE18=Αναγνωστάκης Πέτρος - Κλάψε χλωμό φεγγάρι [1965, Γ. Μητσάκη-Ηρ. Παπασ
TTITLE18=ιδέρη]
TTITLE19=Αναγνωστάκης Πέτρος-Καλάκη Ρούλα - Ποιο είναι το παράπονό σου [1965, 
TTITLE19=Γ. Μητσάκη]
EXTD=
EXTT0=
EXTT1=
EXTT2=
EXTT3=
EXTT4=
EXTT5=
EXTT6=
EXTT7=
EXTT8=
EXTT9=
EXTT10=
EXTT11=
EXTT12=
EXTT13=
EXTT14=
EXTT15=
EXTT16=
EXTT17=
EXTT18=
EXTT19=
PLAYORDER=
